<?xml version="1.0" encoding="UTF-8" standalone="no"?><svg xmlns="http://www.w3.org/2000/svg" xmlns:xlink="http://www.w3.org/1999/xlink"><symbol id="arrow" version="1.1" xmlns="http://www.w3.org/2000/svg" xmlns:xlink="http://www.w3.org/1999/xlink" x="0px" y="0px" viewBox="0 0 480.026 480.026" style="enable-background:new 0 0 480.026 480.026;" xml:space="preserve"><g><g><path d="M475.922,229.325l-144-160c-3.072-3.392-7.36-5.312-11.904-5.312h-96c-6.304,0-12.032,3.712-14.624,9.472
			c-2.56,5.792-1.504,12.544,2.72,17.216l134.368,149.312l-134.368,149.28c-4.224,4.704-5.312,11.456-2.72,17.216
			c2.592,5.792,8.32,9.504,14.624,9.504h96c4.544,0,8.832-1.952,11.904-5.28l144-160
			C481.394,244.653,481.394,235.373,475.922,229.325z"></path></g></g><g><g><path d="M267.922,229.325l-144-160c-3.072-3.392-7.36-5.312-11.904-5.312h-96c-6.304,0-12.032,3.712-14.624,9.472
			c-2.56,5.792-1.504,12.544,2.72,17.216l134.368,149.312L4.114,389.293c-4.224,4.704-5.312,11.456-2.72,17.216
			c2.592,5.792,8.32,9.504,14.624,9.504h96c4.544,0,8.832-1.952,11.904-5.28l144-160
			C273.394,244.653,273.394,235.373,267.922,229.325z"></path></g></g></symbol><symbol id="guides" enable-background="new 0 0 512 512" viewBox="0 0 512 512" xmlns="http://www.w3.org/2000/svg"><g><path d="m435.38 317.096c-14.337-2.294-59.157-9.467-73.38-11.743v-17.685c36.163-15.78 60-51.752 60-91.667v-41h50c5.522 0 10-4.478 10-10v-11.46c0-24.009-19.532-43.541-43.54-43.541h-16.958c-5.034-50.463-47.736-90-99.502-90s-94.468 39.537-99.501 90h-16.959c-24.008 0-43.54 19.532-43.54 43.54v11.46c0 5.522 4.477 10 10 10h50v41c0 39.917 23.839 75.89 60 91.668v17.685c-15.31 2.45-57.975 9.278-73.38 11.743-44.075 7.056-76.62 45.115-76.62 89.854v95.05c0 5.522 4.477 10 10 10h360c5.522 0 10-4.478 10-10v-95.05c0-44.636-32.442-82.782-76.62-89.854zm-113.38-297.096c40.724 0 74.413 30.594 79.353 70h-158.706c4.94-39.406 38.629-70 79.353-70zm-80 176v-41h36.001c5.522 0 10-4.478 10-10s-4.478-10-10-10c-10.308 0-83.83 0-96.001 0v-1.46c0-12.98 10.56-23.54 23.54-23.54h232.92c12.98 0 23.54 10.56 23.54 23.54v1.46c-9.646 0-83.472 0-93.999 0-5.522 0-10 4.478-10 10s4.478 10 10 10h33.999v41c0 43.716-35.387 80-80 80-44.61 0-80-36.281-80-80zm51.58 127.754c4.852-.776 8.42-4.961 8.42-9.874v-19.896c6.544 1.329 13.229 2.016 20 2.016s13.457-.687 20-2.016v19.896c0 4.913 3.568 9.098 8.42 9.874l33.189 5.311-61.609 82.148-61.609-82.148zm49.42 168.246h-41v-46h41zm-191-85.05c0-35.077 25.142-64.561 59.78-70.106l26.29-4.207 70.02 93.363h-16.09c-5.522 0-10 4.478-10 10v56h-70v-56c0-5.522-4.477-10-10-10s-10 4.478-10 10v56h-40zm340 85.05h-40v-56c0-5.522-4.478-10-10-10s-10 4.478-10 10v56h-69v-56c0-5.522-4.478-10-10-10h-17.09l70.02-93.363 26.289 4.207c34.639 5.546 59.781 35.029 59.781 70.106z"></path><path d="m356.627 216.005c2.765-4.781 1.129-10.898-3.652-13.662-4.781-2.765-10.898-1.129-13.662 3.652-3.568 6.171-10.202 10.005-17.313 10.005s-13.745-3.834-17.313-10.005c-2.763-4.779-8.878-6.418-13.662-3.652-4.781 2.764-6.417 8.881-3.652 13.662 7.13 12.333 20.398 19.995 34.627 19.995s27.497-7.662 34.627-19.995z"></path><path d="m10 492c-5.523 0-10 4.478-10 10s4.477 10 10 10h60c5.523 0 10-4.478 10-10s-4.477-10-10-10h-20v-163.229l143.714-57.486c3.797-1.519 6.286-5.196 6.286-9.285s-2.489-7.767-6.286-9.285l-143.714-57.486v-53.229c0-5.522-4.477-10-10-10s-10 4.478-10 10v350zm153.074-230-113.074 45.229v-90.458z"></path><circle cx="323" cy="145" r="10"></circle></g></symbol><symbol id="exhibits" viewBox="0 0 52 60" xmlns="http://www.w3.org/2000/svg"><g fill-rule="evenodd"><g fill-rule="nonzero" transform="translate(0 -1)"><path d="m27.352 42.483c.1761707.319377.5122569.517503.877.517.3534916-.0005725.6804173-.1877289.8598961-.4922679.1794789-.304539.184841-.6812075.0141039-.9907321-1.9269671-3.4532262-4.4479185-6.5395045-7.447-9.117-.2697355-.2343662-.6440143-.3070274-.9818492-.1906127-.3378348.1164147-.5879006.4042191-.656.755-.0680993.350781.0561137.7112465.3258492.9456127 2.8218425 2.4234415 5.1941751 5.3255544 7.008 8.573z"></path><path d="m0 54c-.00304834 3.2728156 2.26393657 6.1101113 5.45671683 6.829476 3.19278026.7193646 6.45749237-.8715855 7.85828317-3.829476h1.685v2c0 1.1045695.8954305 2 2 2h18c1.1045695 0 2-.8954305 2-2v-2h1.685c1.4869356 3.1347271 5.0457204 4.707268 8.3646171 3.6961219 3.3188967-1.0111462 5.3963373-4.3008384 4.8828452-7.7321381s-3.4629567-5.9687183-6.9324623-5.9639838h-8.073c4.0435938-1.5863258 7.4495463-4.4645806 9.688-8.187.6603258-1.1697682.4554847-2.6368407-.5-3.581-3.9065305-3.6983562-8.8157681-6.1642786-14.115-7.09v-3.142c2.209139 0 4-1.790861 4-4v-4h1c.7205493.0000069 1.3854015-.3875772 1.7404168-1.0145983.3550152-.6270211.3453058-1.3965376-.0254168-2.0144017-.0196929-.0329729-.0414007-.0646999-.065-.095l-2.656-3.452c-.0744207-2.55958935-1.1698205-4.98300832-3.042-6.73-2.0524221-1.91797409-4.815156-2.88725258-7.616-2.672-5.331339.44448066-9.4096602 4.9386717-9.336 10.288v6.69c.0036873 2.700319 1.560237 5.1577219 4 6.315v3.823c-5.2933774.9257453-10.1971694 3.3891183-14.1 7.083-.96620777.9455964-1.17625843 2.4225151-.512 3.6 2.23808301 3.719347 5.6426147 6.594777 9.684 8.179h-8.072c-3.86416566.0044086-6.99559136 3.1358343-7 7zm35 5h-18v-2h18zm15-5c0 2.7614237-2.2385763 5-5 5s-5-2.2385763-5-5c0-.5522847.4477153-1 1-1s1 .4477153 1 1 .4477153 1 1 1 1-.4477153 1-1c0-1.6568542-1.3431458-3-3-3s-3 1.3431458-3 3c.002805.3348137.0295398.6689987.08 1h-24.16c.0504602-.3310013.077195-.6651863.08-1 0-1.6568542-1.3431458-3-3-3-1.65685425 0-3 1.3431458-3 3 0 .5522847.44771525 1 1 1s1-.4477153 1-1 .4477153-1 1-1 1 .4477153 1 1c0 2.7614237-2.23857625 5-5 5s-5-2.2385763-5-5 2.23857625-5 5-5h38c2.7600532.0033061 4.9966939 2.2399468 5 5zm-24.534-50.981c2.2478021-.17380523 4.4659294.59989268 6.118 2.134.4068789.38288489.7707044.80908057 1.085 1.271-.747.119-1.556.261-2.423.435.0111972-.46501281-.301585-.87560774-.7528727-.98830976s-.9203855.10263063-1.1291273.51830976l-.512 1c-.527.129-1.064.272-1.606.424-.0362347-.32373559-.2306519-.60843135-.519-.76-.49182-.2508825-1.0939014-.05570965-1.345.436l-.545 1.069c-.544.185-1.086.38-1.625.59-.0855489-.22574847-.2510235-.4122188-.465-.524-.236286-.12079732-.5108974-.14272155-.7633564-.06094433s-.4620604.26054896-.5826436.49694433l-.574 1.127c-.6246667.304-1.2316667.63-1.8210048.978-.0045332-4.24000115 3.2359594-7.77848008 7.4600048-8.146zm-2.466 21.981c.5522847 0 1-.4477153 1-1s-.4477153-1-1-1c-2.7600532-.0033061-4.9966939-2.2399468-5-5v-4.464c.81511-.5444274 1.6660448-1.0332054 2.547-1.463l1 .507c.140551.0707261.2956574.1077051.453.108.3797546.0023652.7275326-.2122814.8956625-.5527979.16813-.3405164.1271022-.7471359-.1056625-1.0472021.5566667-.22 1.117-.426 1.681-.618l1.056.539c.2364082.1207244.5111157.1425007.7635916.0605304s.4620015-.2609603.5824084-.4975304c.1312592-.2652882.1363989-.57550919.014-.845.5106667-.142 1.0106667-.273 1.5-.393l1.118.57c.1399958.07245825.2953643.1101857.453.11.3763942.0003757.7211171-.21063183.892-.546.107667-.21712058.1318649-.46621633.068-.7 1.018-.2 1.932-.356 2.68-.469.2665501.79690024.4023068 1.63170313.402 2.472.0001151.220716.0732482.435193.208.61l2.784 3.619h-1.992c-.5522847 0-1 .4477153-1 1v1h-11c-.5522847 0-1-.4477153-1-1v-1c0-.5522847-.4477153-1-1-1s-1 .4477153-1 1v1c0 1.6568542 1.3431458 3 3 3h11v2c0 1.1045695-.8954305 2-2 2h-5c-.5522847 0-1 .4477153-1 1s.4477153 1 1 1h3v3.141c-.0027368.968028.6908539 1.7978899 1.644 1.967 4.8996189.8517789 9.4402384 3.1266098 13.056 6.541.3163153.3034797.3900721.7812599.18 1.166-1.6007892 2.6888636-3.9053122 4.8896571-6.665 6.365-4.715-9.743-13.776-14.641-16.215-15.819v-3.44c.3310254.0501254.6652102.076526 1 .079zm-2.153 5.03c1.6.755 10.939 5.486 15.566 15.014-3.2697306 1.3436827-6.7783433 2.0091385-10.313 1.956-2.2496412-6.0597637-6.2137387-11.3341085-11.409-15.18 1.9734134-.8394157 4.0400646-1.4400068 6.156-1.789zm-13.726 7.789c-.2107679-.3908709-.13330352-.8745109.189-1.18 1.57230572-1.5410127 3.3661254-2.8383468 5.322-3.849 5.069812 3.5115019 9.0043833 8.4265012 11.321 14.142-10.788-.667-15.336-6.511-16.832-9.113z"></path><path d="m20 53h12c.5522847 0 1-.4477153 1-1s-.4477153-1-1-1h-12c-.5522847 0-1 .4477153-1 1s.4477153 1 1 1z"></path></g></g></symbol><symbol id="museum" viewBox="0 0 512 512" xmlns="http://www.w3.org/2000/svg"><path d="m256 138c2.628906 0 5.210938-1.070312 7.070312-2.929688 1.859376-1.859374 2.929688-4.441406 2.929688-7.070312s-1.070312-5.210938-2.929688-7.070312c-1.859374-1.859376-4.441406-2.929688-7.070312-2.929688s-5.210938 1.070312-7.070312 2.929688c-1.859376 1.859374-2.929688 4.441406-2.929688 7.070312s1.070312 5.210938 2.929688 7.070312c1.859374 1.859376 4.441406 2.929688 7.070312 2.929688zm0 0"></path><path d="m502 452h-12v-30c0-5.523438-4.476562-10-10-10h-6v-15.832031c0-10.828125-6.605469-20.136719-16-24.113281v-33.722657c0-5.523437-4.476562-10-10-10s-10 4.476563-10 10v31.667969h-20v-142h20v32.355469c0 5.523437 4.476562 10 10 10s10-4.476563 10-10v-34.410157c9.394531-3.976562 16-13.289062 16-24.113281v-15.832031h6c5.523438 0 10-4.476562 10-10v-38h1c4.636719 0 8.660156-3.183594 9.730469-7.695312 1.070312-4.507813-1.101563-9.164063-5.242188-11.242188l-235-118c-2.824219-1.417969-6.152343-1.417969-8.976562 0l-235 118c-4.140625 2.082031-6.3125 6.734375-5.242188 11.242188 1.070313 4.511718 5.09375 7.695312 9.730469 7.695312h1v38c0 5.523438 4.476562 10 10 10h6v15.832031c0 10.824219 6.605469 20.136719 16 24.109375v146.113282c-9.394531 3.976562-16 13.285156-16 24.109374v15.835938h-6c-5.523438 0-10 4.476562-10 10v30h-12c-5.523438 0-10 4.476562-10 10v40c0 5.523438 4.476562 10 10 10h492c5.523438 0 10-4.476562 10-10v-40c0-5.523438-4.476562-10-10-10zm-54.167969-62c3.402344 0 6.167969 2.765625 6.167969 6.167969v15.832031h-52v-15.832031c0-3.402344 2.765625-6.167969 6.167969-6.167969zm-88.5 22v-15.832031c0-10.824219-6.605469-20.136719-16-24.113281v-146.109376c9.394531-3.976562 16-13.289062 16-24.113281v-15.832031h22.667969v15.832031c0 10.824219 6.605469 20.136719 16 24.109375v146.113282c-9.394531 3.976562-16 13.285156-16 24.109374v15.835938zm-114.664062 0v-15.832031c0-10.828125-6.609375-20.136719-16-24.113281v-146.109376c9.390625-3.976562 16-13.289062 16-24.113281v-15.832031h22.667969v15.832031c0 10.824219 6.605468 20.136719 16 24.109375v146.113282c-9.394532 3.976562-16 13.285156-16 24.109374v15.835938zm-114.667969 0v-15.832031c0-10.828125-6.605469-20.136719-16-24.113281v-146.109376c9.394531-3.976562 16-13.289062 16-24.113281v-15.832031h22.667969v15.832031c0 10.824219 6.605469 20.136719 16 24.109375v146.113282c-9.394531 3.976562-16 13.285156-16 24.109374v15.835938zm-56-184h20v142h-20zm114.667969 0h20v142h-20zm36-26.167969c0 3.402344-2.765625 6.167969-6.167969 6.167969h-39.667969c-3.398437 0-6.167969-2.765625-6.167969-6.167969v-15.832031h52v15.832031zm-52 194.335938c0-3.402344 2.765625-6.167969 6.167969-6.167969h39.664062c3.398438 0 6.167969 2.765625 6.167969 6.167969v15.832031h-52zm130.664062-168.167969h20v142h-20zm36-26.167969c0 3.402344-2.765625 6.167969-6.167969 6.167969h-39.664062c-3.398438 0-6.167969-2.765625-6.167969-6.167969v-15.832031h52zm-52 194.335938c0-3.402344 2.765625-6.167969 6.167969-6.167969h39.667969c3.398437 0 6.167969 2.765625 6.167969 6.167969v15.832031h-52v-15.832031zm166.667969-194.335938c0 3.402344-2.765625 6.167969-6.167969 6.167969h-39.667969c-3.398437 0-6.164062-2.765625-6.164062-6.167969v-15.832031h52zm-247.667969-63.832031c5.523438 0 10-4.476562 10-10s-4.476562-10-10-10h-143.132812l192.800781-96.808594 192.800781 96.808594h-139.800781c-5.523438 0-10 4.476562-10 10s4.476562 10 10 10h161v28h-428v-28zm-96.332031 48v15.832031c0 3.402344-2.765625 6.167969-6.167969 6.167969h-39.664062c-3.402344 0-6.167969-2.765625-6.167969-6.167969v-15.832031zm-52 210.167969c0-3.402344 2.765625-6.167969 6.167969-6.167969h39.667969c3.398437 0 6.164062 2.765625 6.164062 6.167969v15.832031h-52zm-16 35.832031h428v20h-428zm450 60h-472v-20h472zm0 0"></path><path d="m448 289c-2.628906 0-5.210938 1.070312-7.070312 2.929688-1.859376 1.859374-2.929688 4.441406-2.929688 7.070312s1.070312 5.210938 2.929688 7.070312c1.859374 1.859376 4.441406 2.929688 7.070312 2.929688s5.210938-1.070312 7.070312-2.929688c1.859376-1.859374 2.929688-4.441406 2.929688-7.070312s-1.070312-5.210938-2.929688-7.070312c-1.859374-1.859376-4.441406-2.929688-7.070312-2.929688zm0 0"></path></symbol><symbol id="no-mage" viewBox="0 -36 512 511" xmlns="http://www.w3.org/2000/svg"><path d="m231.898438 198.617188c28.203124 0 51.152343-22.945313 51.152343-51.148438 0-28.207031-22.949219-51.152344-51.152343-51.152344-28.203126 0-51.148438 22.945313-51.148438 51.152344 0 28.203125 22.945312 51.148438 51.148438 51.148438zm0-72.300782c11.664062 0 21.152343 9.488282 21.152343 21.152344 0 11.660156-9.488281 21.148438-21.152343 21.148438-11.660157 0-21.148438-9.488282-21.148438-21.148438 0-11.664062 9.488281-21.152344 21.148438-21.152344zm0 0"></path><path d="m493.304688.5h-474.609376c-10.308593 0-18.695312 8.386719-18.695312 18.695312v401.726563c0 10.308594 8.386719 18.695313 18.695312 18.695313h474.609376c10.308593 0 18.695312-8.386719 18.695312-18.695313v-401.726563c0-10.308593-8.386719-18.695312-18.695312-18.695312zm-11.304688 30v237.40625l-94.351562-94.355469c-6.152344-6.140625-16.15625-6.136719-22.304688.011719l-133.441406 133.441406-85.238282-85.234375c-2.980468-2.984375-6.945312-4.628906-11.164062-4.628906-4.214844 0-8.175781 1.640625-11.15625 4.621094l-94.34375 94.34375v-285.605469zm-452 379.117188v-51.085938l105.5-105.5 85.234375 85.234375c2.984375 2.984375 6.949219 4.632813 11.167969 4.632813 4.210937 0 8.175781-1.644532 11.152344-4.625l133.445312-133.445313 105.503906 105.503906v99.285157zm0 0"></path></symbol><symbol id="tours" version="1.1" xmlns="http://www.w3.org/2000/svg" xmlns:xlink="http://www.w3.org/1999/xlink" x="0px" y="0px" viewBox="0 0 511.887 511.887" style="enable-background:new 0 0 511.887 511.887;" xml:space="preserve"><g><g><g><path d="M137.887,433.025c-3.972,6.885-7.68,13.153-11.034,18.45c-6.472,10.172-17.693,16.331-29.749,16.331
				s-23.277-6.16-29.749-16.331c-3.354-5.297-7.062-11.564-11.034-18.45C19.421,439.999,0,454.741,0,466.216
				c0,17.39,41.49,36.899,97.103,36.899c55.614,0,97.103-19.509,97.103-36.899C194.207,454.741,174.786,439.999,137.887,433.025z"></path><path d="M97.104,150.012C43.393,150.149-0.059,193.759,0,247.469c0,37.341,49.876,143.713,82.273,194.472
				c3.2,5.108,8.803,8.21,14.83,8.21s11.631-3.102,14.83-8.21c32.397-50.759,82.273-157.131,82.273-194.472
				C194.266,193.759,150.814,150.149,97.104,150.012z M97.104,317.736c-39.003,0-70.621-31.618-70.621-70.621
				s31.618-70.621,70.621-70.621s70.621,31.618,70.621,70.621C167.672,286.097,136.085,317.685,97.104,317.736z"></path><path d="M97.104,194.15c-29.252,0-52.966,23.713-52.966,52.966s23.713,52.966,52.966,52.966
				c29.252,0,52.966-23.713,52.966-52.966C150.046,217.873,126.346,194.173,97.104,194.15z"></path><path d="M432.552,247.116c33.457,0,61.793-16.154,61.793-35.31c0-10.858-9.71-21.451-25.159-28.248
				c-5.208,9.71-10.24,18.361-14.301,24.806c-4.855,7.642-13.28,12.27-22.334,12.27s-17.479-4.629-22.334-12.27
				c-4.061-6.444-9.092-15.095-14.301-24.806c-15.448,6.797-25.158,17.39-25.158,28.248
				C370.759,230.961,399.095,247.116,432.552,247.116z"></path><path d="M432.552,202.823c2.965,0,5.739-1.461,7.415-3.906c21.362-33.633,54.377-103.724,54.377-128.088
				c0.046-34.189-27.604-61.958-61.793-62.058c-34.189,0.1-61.839,27.868-61.793,62.058c0,24.364,33.015,94.455,54.378,128.088
				C426.813,201.362,429.587,202.823,432.552,202.823z M388.414,70.564c0-24.377,19.761-44.138,44.138-44.138
				c24.377,0,44.138,19.761,44.138,44.138c-0.009,24.373-19.765,44.129-44.138,44.138
				C408.175,114.702,388.414,94.941,388.414,70.564z"></path><path d="M459.035,70.564c-0.043-14.608-11.874-26.44-26.483-26.483c-14.626,0-26.483,11.857-26.483,26.483
				c0,14.626,11.857,26.483,26.483,26.483C447.178,97.047,459.035,85.19,459.035,70.564z"></path><path d="M229.517,458.978h-8.828c-4.875,0-8.828,3.952-8.828,8.828c0,4.875,3.952,8.828,8.828,8.828h8.828
				c4.875,0,8.828-3.952,8.828-8.828C238.345,462.93,234.393,458.978,229.517,458.978z"></path><path d="M336.06,458.978h-17.759c-4.875,0-8.828,3.952-8.828,8.828c0,4.875,3.952,8.828,8.828,8.828h17.759
				c4.875,0,8.828-3.952,8.828-8.828C344.888,462.93,340.936,458.978,336.06,458.978z"></path><path d="M318.146,291.254c0-4.875-3.952-8.828-8.828-8.828H291.56c-4.875,0-8.828,3.952-8.828,8.828
				c0,4.875,3.952,8.828,8.828,8.828h17.758C314.194,300.081,318.146,296.129,318.146,291.254z"></path><path d="M281.785,220.633h17.759c4.875,0,8.828-3.952,8.828-8.828c0-4.875-3.952-8.828-8.828-8.828h-17.759
				c-4.875,0-8.828,3.952-8.828,8.828C272.957,216.681,276.909,220.633,281.785,220.633z"></path><path d="M240.396,247.719L240.396,247.719c3.794-0.003,7.162-2.426,8.371-6.022c1.477-4.38,3.916-8.375,7.138-11.69
				c3.397-3.5,3.314-9.09-0.186-12.487c-3.5-3.397-9.09-3.314-12.487,0.186c-5.052,5.216-8.88,11.492-11.207,18.371
				c-0.898,2.694-0.447,5.655,1.21,7.96C234.893,246.343,237.557,247.712,240.396,247.719z"></path><path d="M485.246,325.65c-4.137,2.578-5.401,8.022-2.823,12.159c2.815,4.522,5.166,9.316,7.017,14.31
				c1.281,3.464,4.583,5.764,8.276,5.767c2.888-0.004,5.591-1.419,7.24-3.79c1.649-2.371,2.036-5.397,1.035-8.107
				c-2.265-6.113-5.142-11.982-8.586-17.517C494.827,324.336,489.383,323.072,485.246,325.65z"></path><path d="M282.793,458.978h-17.759c-4.875,0-8.828,3.952-8.828,8.828c0,4.875,3.952,8.828,8.828,8.828h17.759
				c4.875,0,8.828-3.952,8.828-8.828C291.621,462.93,287.669,458.978,282.793,458.978z"></path><path d="M503.488,375.164c-4.845-0.237-8.974,3.479-9.247,8.323c-0.258,5.315-1.058,10.589-2.388,15.741
				c-0.682,2.646-0.1,5.458,1.574,7.616c1.675,2.159,4.254,3.421,6.986,3.418c4.022-0.008,7.531-2.728,8.543-6.621
				c1.624-6.316,2.603-12.78,2.922-19.293C512.08,379.502,508.333,375.4,503.488,375.164z"></path><path d="M371.086,291.254c-0.153-4.938-4.215-8.854-9.155-8.828h-17.104c-4.875,0-8.828,3.952-8.828,8.828
				c0,4.875,3.952,8.828,8.828,8.828h17.759c2.308-0.013,4.512-0.958,6.113-2.62C370.3,295.799,371.161,293.56,371.086,291.254z"></path><path d="M490.297,426.13c-3.864-2.969-9.403-2.246-12.375,1.615c-3.254,4.232-6.919,8.131-10.94,11.642
				c-2.774,2.418-3.757,6.304-2.465,9.751s4.586,5.729,8.267,5.728c2.134,0.003,4.196-0.771,5.802-2.177
				c4.902-4.277,9.369-9.029,13.336-14.185C494.888,434.637,494.161,429.099,490.297,426.13z"></path><path d="M424.741,291.318c0.033-4.875-3.892-8.855-8.767-8.888l-17.871-0.004c-4.875,0-8.828,3.952-8.828,8.828
				c0,4.875,3.952,8.828,8.828,8.828l17.629,0.004h0.121C420.729,300.119,424.708,296.194,424.741,291.318z"></path><path d="M257.164,294.142c3.945,0.004,7.413-2.61,8.496-6.403s-0.481-7.844-3.832-9.925c-3.928-2.444-7.264-5.73-9.767-9.621
				c-2.635-4.104-8.099-5.295-12.203-2.659c-4.104,2.635-5.295,8.099-2.659,12.203c3.932,6.094,9.163,11.243,15.319,15.078
				C253.911,293.683,255.521,294.143,257.164,294.142L257.164,294.142z"></path><path d="M389.328,458.978h-17.759c-4.875,0-8.828,3.952-8.828,8.828c0,4.875,3.952,8.828,8.828,8.828h17.759
				c4.875,0,8.828-3.952,8.828-8.828C398.155,462.93,394.203,458.978,389.328,458.978z"></path><path d="M465.724,316.292c3.846,0.004,7.253-2.483,8.421-6.147c1.168-3.665-0.17-7.664-3.309-9.887
				c-5.313-3.761-10.987-6.982-16.939-9.616c-2.884-1.275-6.23-0.914-8.776,0.946s-3.907,4.938-3.569,8.073
				c0.338,3.135,2.323,5.852,5.207,7.127c4.875,2.159,9.521,4.8,13.871,7.884C462.119,315.726,463.899,316.292,465.724,316.292
				L465.724,316.292z"></path><path d="M439.397,455.086c-5.062,1.652-10.278,2.787-15.569,3.388c-4.65,0.527-8.082,4.591-7.821,9.264
				c0.261,4.673,4.123,8.33,8.803,8.335c0.334,0,0.668-0.018,1-0.056c6.48-0.737,12.868-2.126,19.069-4.147
				c4.635-1.514,7.165-6.499,5.651-11.134C449.016,456.102,444.031,453.572,439.397,455.086z"></path><path d="M335.448,220.633h8.828c4.875,0,8.828-3.952,8.828-8.828c0-4.875-3.952-8.828-8.828-8.828h-8.828
				c-4.875,0-8.828,3.952-8.828,8.828C326.621,216.681,330.573,220.633,335.448,220.633z"></path></g></g></g></symbol><symbol id="user" version="1.1" xmlns="http://www.w3.org/2000/svg" xmlns:xlink="http://www.w3.org/1999/xlink" x="0px" y="0px" viewBox="0 0 512 512" style="enable-background:new 0 0 512 512;" xml:space="preserve"><g><g><path d="M437.02,330.98c-27.883-27.882-61.071-48.523-97.281-61.018C378.521,243.251,404,198.548,404,148
			C404,66.393,337.607,0,256,0S108,66.393,108,148c0,50.548,25.479,95.251,64.262,121.962
			c-36.21,12.495-69.398,33.136-97.281,61.018C26.629,379.333,0,443.62,0,512h40c0-119.103,96.897-216,216-216s216,96.897,216,216
			h40C512,443.62,485.371,379.333,437.02,330.98z M256,256c-59.551,0-108-48.448-108-108S196.449,40,256,40
			c59.551,0,108,48.448,108,108S315.551,256,256,256z"></path></g></g></symbol><symbol id="visitors" enable-background="new 0 0 64 64" viewBox="0 0 64 64" xmlns="http://www.w3.org/2000/svg"><g><g><path d="m4.001 36c-.553 0-1-.447-1-1v-3.867c0-.553.447-1 1-1s1 .447 1 1v3.867c0 .553-.447 1-1 1z"></path></g><g><path d="m18.001 36c-.553 0-1-.447-1-1v-4.5c0-.553.447-1 1-1s1 .447 1 1v4.5c0 .553-.447 1-1 1z"></path></g><g><path d="m18.001 31.5c-.553 0-1-.447-1-1 0-3.584-2.916-6.5-6.501-6.5-3.584 0-6.499 2.916-6.499 6.5 0 .553-.447 1-1 1s-1-.447-1-1c0-4.687 3.813-8.5 8.499-8.5 4.688 0 8.501 3.813 8.501 8.5 0 .553-.447 1-1 1z"></path></g><g><path d="m18.002 32.871c-.301 0-.598-.135-.795-.392-1.931-2.523-2.457-2.313-4.414-1.538-1.878.743-4.716 1.87-9.948 1.042-.545-.086-.918-.597-.831-1.143.086-.545.6-.92 1.144-.831 4.692.742 7.123-.223 8.899-.927 2.408-.954 4.024-1.362 6.738 2.181.336.438.253 1.066-.186 1.402-.181.139-.395.206-.607.206z"></path></g><g><path d="m14 30.477c-.147 0-.298-.033-.439-.103-.496-.243-.7-.843-.457-1.338l2-4.072c.243-.496.841-.701 1.338-.457.496.243.7.843.457 1.338l-2 4.072c-.174.354-.53.56-.899.56z"></path></g><g><path d="m2.001 47.996c-.553 0-1-.447-1-1 0-2.206 1.794-4 4-4 .553 0 1 .447 1 1s-.447 1-1 1c-1.103 0-2 .897-2 2 0 .553-.447 1-1 1z"></path></g><g><path d="m8.001 45.002h-3c-.553 0-1-.447-1-1s.447-1 1-1h3c.553 0 1 .447 1 1s-.447 1-1 1z"></path></g><g><path d="m2.001 52c-.553 0-1-.447-1-1v-4.004c0-.553.447-1 1-1s1 .447 1 1v4.004c0 .553-.447 1-1 1z"></path></g><g><path d="m20.001 47.996c-.553 0-1-.447-1-1 0-1.103-.897-2-2-2-.553 0-1-.447-1-1s.447-1 1-1c2.206 0 4 1.794 4 4 0 .553-.447 1-1 1z"></path></g><g><path d="m17.001 45.002h-3c-.553 0-1-.447-1-1s.447-1 1-1h3c.553 0 1 .447 1 1s-.447 1-1 1z"></path></g><g><path d="m20.001 52c-.553 0-1-.447-1-1v-4.004c0-.553.447-1 1-1s1 .447 1 1v4.004c0 .553-.447 1-1 1z"></path></g><g><path d="m8.001 45.002c-.553 0-1-.447-1-1v-2.684c0-.553.447-1 1-1s1 .447 1 1v2.684c0 .553-.447 1-1 1z"></path></g><g><path d="m14.001 44.996c-.553 0-1-.447-1-1v-2.678c0-.553.447-1 1-1s1 .447 1 1v2.678c0 .553-.447 1-1 1z"></path></g><g><path d="m11.001 42.992c-4.411 0-8-3.587-8-7.996 0-.553.447-1 1-1s1 .447 1 1c0 3.307 2.691 5.996 6 5.996s6-2.689 6-5.996c0-.553.447-1 1-1s1 .447 1 1c0 4.409-3.589 7.996-8 7.996z"></path></g><g><path d="m45.999 36c-.553 0-1-.447-1-1v-8.004c0-.553.447-1 1-1s1 .447 1 1v8.004c0 .553-.447 1-1 1z"></path></g><g><path d="m59.999 36c-.553 0-1-.447-1-1v-.293c0-.553.447-1 1-1s1 .447 1 1v.293c0 .553-.447 1-1 1z"></path></g><g><path d="m43.999 47.996c-.553 0-1-.447-1-1 0-2.206 1.794-4 4-4 .553 0 1 .447 1 1s-.447 1-1 1c-1.103 0-2 .897-2 2 0 .553-.447 1-1 1z"></path></g><g><path d="m49.999 45.002h-3c-.553 0-1-.447-1-1s.447-1 1-1h3c.553 0 1 .447 1 1s-.447 1-1 1z"></path></g><g><path d="m43.999 52c-.553 0-1-.447-1-1v-4.004c0-.553.447-1 1-1s1 .447 1 1v4.004c0 .553-.447 1-1 1z"></path></g><g><path d="m61.999 47.996c-.553 0-1-.447-1-1 0-1.103-.897-2-2-2-.553 0-1-.447-1-1s.447-1 1-1c2.206 0 4 1.794 4 4 0 .553-.447 1-1 1z"></path></g><g><path d="m58.999 45.002h-3c-.553 0-1-.447-1-1s.447-1 1-1h3c.553 0 1 .447 1 1s-.447 1-1 1z"></path></g><g><path d="m61.999 52c-.553 0-1-.447-1-1v-4.004c0-.553.447-1 1-1s1 .447 1 1v4.004c0 .553-.447 1-1 1z"></path></g><g><path d="m49.999 45.002c-.553 0-1-.447-1-1v-2.684c0-.553.447-1 1-1s1 .447 1 1v2.684c0 .553-.447 1-1 1z"></path></g><g><path d="m55.999 44.996c-.553 0-1-.447-1-1v-2.678c0-.553.447-1 1-1s1 .447 1 1v2.678c0 .553-.447 1-1 1z"></path></g><g><path d="m52.999 42.992c-4.411 0-8-3.587-8-7.996 0-.553.447-1 1-1s1 .447 1 1c0 3.307 2.691 5.996 6 5.996s6-2.689 6-5.996c0-.553.447-1 1-1s1 .447 1 1c0 4.409-3.589 7.996-8 7.996z"></path></g><g><path d="m20 59c-.553 0-1-.447-1-1 0-3.309 2.691-6 6-6 .553 0 1 .447 1 1s-.447 1-1 1c-2.206 0-4 1.794-4 4 0 .553-.447 1-1 1z"></path></g><g><path d="m28 54h-3c-.553 0-1-.447-1-1s.447-1 1-1h3c.553 0 1 .447 1 1s-.447 1-1 1z"></path></g><g><path d="m20 63c-.553 0-1-.447-1-1v-4c0-.553.447-1 1-1s1 .447 1 1v4c0 .553-.447 1-1 1z"></path></g><g><path d="m44 59c-.553 0-1-.447-1-1 0-2.206-1.794-4-4-4-.553 0-1-.447-1-1s.447-1 1-1c3.309 0 6 2.691 6 6 0 .553-.447 1-1 1z"></path></g><g><path d="m39 54h-3c-.553 0-1-.447-1-1s.447-1 1-1h3c.553 0 1 .447 1 1s-.447 1-1 1z"></path></g><g><path d="m44 63c-.553 0-1-.447-1-1v-4c0-.553.447-1 1-1s1 .447 1 1v4c0 .553-.447 1-1 1z"></path></g><g><path d="m28 54c-.553 0-1-.447-1-1v-3.936c0-.553.447-1 1-1s1 .447 1 1v3.936c0 .553-.447 1-1 1z"></path></g><g><path d="m36 54c-.553 0-1-.447-1-1v-3.936c0-.553.447-1 1-1s1 .447 1 1v3.936c0 .553-.447 1-1 1z"></path></g><g><path d="m31.999 51c-5.514 0-9.999-4.485-9.999-9.998 0-.553.447-1 1-1s1 .447 1 1c0 4.41 3.588 7.998 7.999 7.998 4.412 0 8.001-3.588 8.001-7.998 0-.553.447-1 1-1s1 .447 1 1c0 5.513-4.486 9.998-10.001 9.998z"></path></g><g><path d="m23 42.051c-.553 0-1-.447-1-1v-6.051c0-.553.447-1 1-1s1 .447 1 1v6.051c0 .553-.447 1-1 1z"></path></g><g><path d="m41 42.002c-.553 0-1-.447-1-1v-6.002c0-.553.447-1 1-1s1 .447 1 1v6.002c0 .553-.447 1-1 1z"></path></g><g><path d="m41 36c-.553 0-1-.447-1-1 0-1.654-1.346-3-3-3-.553 0-1-.447-1-1s.447-1 1-1c2.757 0 5 2.243 5 5 0 .553-.447 1-1 1z"></path></g><g><path d="m37 32c-.553 0-1-.447-1-1v-4c0-.553.447-1 1-1s1 .447 1 1v4c0 .553-.447 1-1 1z"></path></g><g><path d="m37 28.014h-6c-.553 0-1-.447-1-1s.447-1 1-1h6c.553 0 1 .447 1 1s-.447 1-1 1z"></path></g><g><path d="m23 36c-.553 0-1-.447-1-1 0-4.963 4.037-9 9-9 .553 0 1 .447 1 1s-.447 1-1 1c-3.859 0-7 3.141-7 7 0 .553-.447 1-1 1z"></path></g><g><g><path d="m40.999 39.025c-.192 0-.387-.056-.559-.171l-3-2.025c-.458-.31-.578-.931-.27-1.389.31-.458.929-.576 1.389-.27l3 2.025c.458.31.578.931.27 1.389-.193.287-.509.441-.83.441z"></path></g><g><path d="m32.5 38c-3.612 0-6.687-1.008-6.815-1.051-.523-.175-.807-.74-.634-1.264.174-.523.739-.807 1.264-.635.029.011 2.908.95 6.185.95 3.178 0 5.04-.888 5.059-.897.493-.24 1.094-.037 1.337.457s.043 1.09-.449 1.336c-.092.044-2.261 1.104-5.947 1.104z"></path></g><g><path d="m23.001 39.025c-.321 0-.637-.154-.83-.44-.309-.458-.188-1.079.27-1.389l3-2.025c.459-.307 1.079-.188 1.389.27.309.458.188 1.079-.27 1.389l-3 2.025c-.172.115-.367.17-.559.17z"></path></g></g><g><path d="m61.999 30.996c-.553 0-1-.447-1-1 0-3.859-3.141-7-7-7-1.782 0-3.362.968-4.374 1.78-.432.346-1.06.276-1.406-.154-.346-.431-.276-1.061.154-1.406 1.81-1.452 3.755-2.22 5.626-2.22 4.963 0 9 4.037 9 9 0 .553-.447 1-1 1z"></path></g><g><path d="m61.999 40.996c-.553 0-1-.447-1-1 0-3.859-3.141-7-7-7-.553 0-1-.447-1-1s.447-1 1-1c4.963 0 9 4.037 9 9 0 .553-.447 1-1 1z"></path></g><g><path d="m45.999 32.996c-.553 0-1-.447-1-1s.447-1 1-1c1.103 0 2-.897 2-2 0-.553.447-1 1-1s1 .447 1 1c0 2.206-1.794 4-4 4z"></path></g><g><path d="m45.999 28.01c-.553 0-1-.447-1-1 0-2.206 1.794-4 4-4 .553 0 1 .447 1 1s-.447 1-1 1c-1.103 0-2 .897-2 2 0 .553-.447 1-1 1z"></path></g><g><path d="m51.999 32.996c-2.206 0-4-1.794-4-4 0-.553.447-1 1-1s1 .447 1 1c0 1.103.897 2 2 2 .553 0 1 .447 1 1s-.447 1-1 1z"></path></g><g><path d="m48.999 29.996c-.553 0-1-.447-1-1v-5c0-.553.447-1 1-1s1 .447 1 1v5c0 .553-.447 1-1 1z"></path></g><g><path d="m61.999 40.996c-.553 0-1-.447-1-1v-10c0-.553.447-1 1-1s1 .447 1 1v10c0 .553-.447 1-1 1z"></path></g><g><path d="m53.999 32.996h-2c-.553 0-1-.447-1-1s.447-1 1-1h2c.553 0 1 .447 1 1s-.447 1-1 1z"></path></g><g><path d="m3.001 31.996c-.553 0-1-.447-1-1v-.496c0-.553.447-1 1-1s1 .447 1 1v.496c0 .553-.447 1-1 1z"></path></g><g><path d="m29.999 54.994c-.149 0-.301-.033-.444-.104l-2-.994c-.494-.246-.696-.846-.45-1.341.245-.494.843-.698 1.341-.45l2 .994c.494.246.696.846.45 1.341-.175.351-.529.554-.897.554z"></path></g><g><path d="m30.001 54.994c-.367 0-.721-.203-.896-.554-.247-.494-.046-1.095.448-1.341l2-.998c.497-.249 1.095-.045 1.341.448.247.494.046 1.095-.448 1.341l-2 .998c-.143.073-.296.106-.445.106z"></path></g><g><path d="m34.001 54.994c-.368 0-.722-.203-.896-.555-.246-.495-.044-1.095.45-1.341l2-.994c.498-.248 1.096-.044 1.341.45.246.495.044 1.095-.45 1.341l-2 .994c-.144.072-.296.105-.445.105z"></path></g><g><path d="m33.999 54.994c-.149 0-.302-.033-.445-.105l-2-.998c-.494-.246-.695-.847-.448-1.341.246-.493.846-.697 1.341-.448l2 .998c.494.246.695.847.448 1.341-.175.35-.529.553-.896.553z"></path></g><g><path d="m53 46.994c-.189 0-.382-.054-.552-.167l-3.002-1.992c-.46-.305-.586-.926-.28-1.386.305-.46.924-.589 1.386-.28l3.002 1.992c.46.305.586.926.28 1.386-.192.29-.51.447-.834.447z"></path></g><g><path d="m52.998 46.994c-.324 0-.642-.157-.834-.447-.306-.46-.18-1.081.28-1.386l3.002-1.992c.46-.309 1.081-.18 1.386.28.306.46.18 1.081-.28 1.386l-3.002 1.992c-.17.113-.362.167-.552.167z"></path></g><g><path d="m11 46.998c-2.242 0-3.999-1.317-3.999-3 0-.553.447-1 1-1s1 .447 1 1c0 .408.778 1 1.999 1s2-.592 2-1c0-.553.447-1 1-1s1 .447 1 1c0 1.683-1.757 3-4 3z"></path></g><g><g><g><path d="m37.499 9.986h-10.998c-.553 0-1-.447-1-1v-1.998c0-.421.264-.797.66-.94l5.499-1.988c.219-.08.461-.08.68 0l5.499 1.988c.396.144.66.52.66.94v1.998c0 .553-.447 1-1 1zm-9.998-2h8.998v-.296l-4.499-1.627-4.499 1.627z"></path></g><g><path d="m37.498 17.986h-10.997c-.553 0-1-.447-1-1v-3c0-.553.447-1 1-1h10.997c.553 0 1 .447 1 1v3c0 .553-.447 1-1 1zm-9.997-2h8.997v-1h-8.997z"></path></g><g><path d="m27.496 14.986c-.553 0-1-.447-1-1v-5c0-.553.447-1 1-1s1 .447 1 1v5c0 .553-.447 1-1 1z"></path></g><g><path d="m33.499 14.986c-.553 0-1-.447-1-1v-5c0-.553.447-1 1-1s1 .447 1 1v5c0 .553-.447 1-1 1z"></path></g><g><path d="m30.498 14.986c-.553 0-1-.447-1-1v-5c0-.553.447-1 1-1s1 .447 1 1v5c0 .553-.447 1-1 1z"></path></g><g><path d="m36.499 14.986c-.553 0-1-.447-1-1v-5c0-.553.447-1 1-1s1 .447 1 1v5c0 .553-.447 1-1 1z"></path></g></g><g><g><path d="m48 3h-32c-.553 0-1-.447-1-1s.447-1 1-1h32c.553 0 1 .447 1 1s-.447 1-1 1z"></path></g><g><path d="m48 21h-32c-.553 0-1-.447-1-1s.447-1 1-1h32c.553 0 1 .447 1 1s-.447 1-1 1z"></path></g><g><path d="m48 16c-2.757 0-5-2.243-5-5s2.243-5 5-5c.553 0 1 .447 1 1s-.447 1-1 1c-1.654 0-3 1.346-3 3s1.346 3 3 3c.553 0 1 .447 1 1s-.447 1-1 1z"></path></g><g><path d="m48 21c-.553 0-1-.447-1-1v-5c0-.553.447-1 1-1s1 .447 1 1v5c0 .553-.447 1-1 1z"></path></g><g><path d="m48 8c-.553 0-1-.447-1-1v-5c0-.553.447-1 1-1s1 .447 1 1v5c0 .553-.447 1-1 1z"></path></g><g><path d="m16.002 16c-.553 0-1-.447-1-1s.447-1 1-1c1.654 0 3-1.346 3-3s-1.346-3-3-3c-.553 0-1-.447-1-1s.447-1 1-1c2.757 0 5 2.243 5 5s-2.243 5-5 5z"></path></g><g><path d="m16.002 21c-.553 0-1-.447-1-1v-5c0-.553.447-1 1-1s1 .447 1 1v5c0 .553-.447 1-1 1z"></path></g><g><path d="m16.002 8c-.553 0-1-.447-1-1v-5c0-.553.447-1 1-1s1 .447 1 1v5c0 .553-.447 1-1 1z"></path></g></g></g></g></symbol></svg>
